<?xml version="1.0" standalone="no"?>
<!DOCTYPE svg PUBLIC "-//W3C//DTD SVG 20010904//EN"
 "http://www.w3.org/TR/2001/REC-SVG-20010904/DTD/svg10.dtd">
<svg version="1.0" xmlns="http://www.w3.org/2000/svg"
 width="1129.000000pt" height="990.000000pt" viewBox="0 0 1129.000000 990.000000"
 preserveAspectRatio="xMidYMid meet">

<g transform="translate(0.000000,990.000000) scale(0.100000,-0.100000)"
fill="#000000" stroke="none">
<path d="M4440 5535 l0 -965 210 0 211 0 -1 588 c-1 491 1 587 12 590 8 1 56
-50 108 -114 52 -65 113 -138 135 -164 56 -66 221 -266 499 -607 l239 -293
178 0 179 0 0 965 0 965 -205 -2 -205 -3 -3 -585 c-2 -542 -3 -585 -19 -588
-9 -2 -24 5 -32 15 -8 10 -59 72 -113 139 -54 67 -177 217 -274 335 -96 118
-262 321 -368 452 l-194 237 -178 0 -179 0 0 -965z"/>
<path d="M9010 6335 l0 -165 193 -2 192 -3 3 -798 2 -797 218 2 217 3 0 960 0
960 -412 3 -413 2 0 -165z"/>
<path d="M2271 6268 c-7 -51 -16 -129 -21 -173 -16 -149 -50 -392 -56 -408 -5
-15 -39 -17 -296 -19 l-290 -3 1 -165 c0 -91 1 -169 1 -173 0 -4 120 -7 266
-7 146 1 268 -1 271 -4 6 -6 -11 -157 -47 -431 -11 -82 -23 -177 -27 -210 -10
-103 17 -95 -313 -95 -160 0 -290 -3 -290 -7 -6 -253 -4 -333 8 -338 8 -3 130
-5 272 -5 226 0 259 -2 264 -16 3 -9 4 -19 2 -23 -4 -5 -27 -188 -75 -574 -4
-32 -4 -60 0 -63 5 -3 82 -5 171 -5 l163 -1 6 29 c4 15 12 73 18 128 6 55 16
132 21 170 6 39 17 131 26 205 9 74 18 138 21 143 6 11 691 9 698 -2 3 -6 1
-40 -5 -78 -19 -130 -70 -548 -70 -574 0 -19 8 -19 172 -17 l172 3 18 150 c9
83 22 186 27 230 6 44 16 118 22 165 5 47 13 95 16 107 l5 23 292 2 291 3 0
170 0 170 -265 3 c-145 1 -268 6 -272 10 -5 5 10 151 32 325 22 175 40 330 40
345 0 16 6 36 13 46 12 16 37 18 298 19 l284 2 0 170 0 170 -265 5 -265 5 -4
25 c-2 14 2 61 7 105 24 180 33 246 47 365 8 69 17 140 21 158 l7 32 -171 0
c-94 0 -173 -4 -176 -9 -3 -4 -21 -131 -40 -282 -49 -380 -48 -373 -59 -386
-7 -10 -88 -13 -344 -13 -284 0 -334 2 -339 15 -5 13 32 361 56 515 5 36 11
85 12 110 l3 45 -171 3 -170 2 -13 -92z m921 -959 c7 -20 -83 -703 -94 -716
-8 -10 -81 -13 -340 -13 -283 0 -329 2 -334 15 -4 8 -2 52 4 98 48 398 77 604
85 615 13 16 673 18 679 1z"/>
<path d="M7245 6054 c-11 -3 -46 -9 -78 -16 -150 -29 -274 -96 -388 -208 -73
-72 -94 -99 -133 -180 -54 -112 -76 -214 -76 -350 0 -242 99 -450 278 -585
100 -75 182 -111 348 -154 55 -14 311 -14 371 0 302 72 500 241 586 502 28 85
30 103 31 237 0 151 -9 202 -56 315 -92 224 -320 392 -588 435 -62 9 -253 12
-295 4z m295 -356 c85 -39 144 -98 187 -186 l38 -76 0 -130 c0 -126 -1 -133
-32 -198 -42 -89 -101 -151 -182 -191 -61 -30 -72 -32 -171 -32 -93 0 -112 3
-162 27 -167 78 -260 264 -231 462 24 165 119 285 268 338 76 27 212 20 285
-14z"/>
<path d="M8585 5051 c-94 -25 -153 -76 -179 -154 -45 -134 11 -272 133 -331
47 -22 164 -21 216 3 47 21 98 69 122 115 18 34 24 168 10 219 -10 37 -72 104
-117 127 -42 21 -141 33 -185 21z"/>
<path d="M4244 4245 c-2 -6 -3 -198 -2 -428 l3 -417 2760 0 2760 0 0 425 0
425 -2759 3 c-1833 1 -2760 -1 -2762 -8z m617 -174 c19 -19 259 -322 274 -344
9 -15 21 -27 26 -27 5 0 9 86 9 190 0 174 1 190 18 191 20 2 56 -2 60 -6 8 -7
1 -530 -7 -538 -26 -26 -63 7 -212 193 -83 105 -154 189 -156 186 -3 -3 -6
-87 -7 -187 -1 -199 -4 -209 -59 -195 l-27 6 0 265 c0 241 2 265 18 274 16 10
50 6 63 -8z m1691 3 c184 -62 242 -305 109 -456 -76 -87 -234 -116 -346 -63
-141 67 -201 237 -132 377 32 65 91 121 151 142 55 19 162 20 218 0z m438 6
c4 0 77 -86 162 -192 l153 -192 3 187 c2 172 4 187 22 197 12 7 27 7 44 0 l26
-10 0 -259 c0 -358 -4 -360 -215 -96 -75 94 -144 179 -153 190 -16 19 -17 9
-20 -172 l-2 -193 -27 -6 c-55 -14 -55 -12 -55 275 1 271 4 289 40 276 8 -3
17 -5 22 -5z m1543 -14 c39 -19 46 -40 23 -71 -13 -19 -16 -19 -49 -3 -107 51
-237 20 -237 -57 0 -36 41 -62 140 -90 52 -15 110 -38 129 -52 90 -69 71 -187
-40 -243 -76 -39 -250 -19 -310 36 -17 15 -17 19 -3 45 8 16 16 29 18 29 2 0
28 -12 57 -27 70 -37 172 -40 216 -7 34 25 42 68 18 95 -18 19 -28 23 -153 59
-119 34 -171 99 -152 186 10 44 59 97 103 112 49 17 195 9 240 -12z m327 0 c3
-103 -1 -520 -5 -527 -7 -10 -36 -12 -59 -3 -14 5 -16 39 -16 274 l0 269 23 3
c31 5 57 -2 57 -16z m-4310 -255 c0 -261 -1 -270 -20 -276 -11 -3 -29 -3 -40
0 -19 6 -20 15 -20 276 l0 269 40 0 40 0 0 -269z m1305 245 c56 -26 117 -88
140 -142 19 -46 20 -164 1 -208 -19 -46 -82 -113 -125 -136 -60 -30 -140 -42
-261 -38 l-115 3 -3 273 -2 272 157 0 c144 0 162 -2 208 -24z m2159 8 c4 -9 4
-25 1 -35 -6 -17 -21 -19 -153 -21 l-147 -3 0 -75 0 -75 130 -5 130 -5 3 -32
3 -32 -133 -3 -133 -3 0 -80 0 -80 155 -5 c153 -5 155 -5 158 -28 7 -48 -7
-52 -202 -52 -128 0 -186 4 -194 12 -9 9 -12 80 -12 259 0 136 3 254 6 263 5
14 32 16 194 16 165 0 189 -2 194 -16z m1361 -56 c118 -252 205 -454 200 -466
-3 -8 -17 -12 -37 -10 -30 3 -37 10 -67 71 l-34 67 -139 0 -139 0 -28 -64
c-16 -34 -36 -66 -46 -70 -27 -10 -55 -7 -61 7 -4 12 147 360 212 490 23 44
27 47 65 47 40 0 40 0 74 -72z"/>
<path d="M6355 3996 c-130 -59 -154 -245 -43 -342 130 -114 339 -17 338 158
-1 78 -56 162 -123 187 -39 15 -136 13 -172 -3z"/>
<path d="M5575 3998 c-3 -7 -4 -97 -3 -198 l3 -185 105 1 c87 0 112 4 147 22
77 40 116 131 94 219 -28 108 -86 145 -238 151 -82 3 -104 1 -108 -10z"/>
<path d="M9283 3963 c-3 -10 -25 -62 -48 -115 -24 -53 -40 -99 -37 -102 8 -9
202 -7 202 2 0 16 -95 232 -102 232 -5 0 -11 -8 -15 -17z"/>
</g>
</svg>
